<svg xmlns="http://www.w3.org/2000/svg" width="801" height="600" viewBox="0 0 801 600" fill="none"><rect width="800" height="600" transform="translate(0.558594)" fill="#4845E1"></rect><path fill-rule="evenodd" clip-rule="evenodd" d="M261.402 79.9141H477.632V91.444H261.402V79.9141ZM674.012 230.954L673.712 229.994C673.506 229.117 673.811 227.047 674.189 224.489L674.19 224.487L674.19 224.487V224.486V224.486C675.238 217.388 676.842 206.536 669.602 206.984C669.312 202.214 660.962 196.754 651.162 192.924C648.132 191.734 644.972 190.704 641.862 189.894C631.882 187.304 622.482 187.014 620.102 191.284C613.652 202.894 619.742 211.384 622.342 213.174C622.772 213.474 623.432 213.774 624.282 214.064C624.942 214.284 625.712 214.514 626.572 214.724C629.262 215.414 632.812 216.024 636.442 216.464L636.475 216.601C636.564 216.978 636.655 217.361 636.762 217.744C637.682 221.274 639.242 224.934 641.862 227.004L641.866 227.006L641.87 227.009C641.874 227.012 641.877 227.015 641.881 227.018C641.891 227.027 641.899 227.038 641.912 227.044C642.054 229.452 642.03 231.363 642.011 232.877V232.877V232.88C642.003 233.503 641.996 234.059 642.002 234.554C642.022 236.394 642.202 237.404 643.142 237.964C645.922 239.614 648.422 232.844 648.622 231.674C648.622 231.644 648.632 231.624 648.632 231.604C648.752 230.454 649.812 229.554 651.162 229.194C652.712 228.774 654.672 229.104 656.002 230.654C657.202 232.044 657.902 234.424 657.372 238.154C656.712 240.224 656.202 241.824 656.382 242.254C656.742 243.114 657.252 243.764 657.872 244.224C658.562 244.754 659.402 245.044 660.322 245.144C666.412 245.764 676.222 237.694 674.012 230.954ZM665.452 439.135V440.135H674.782L667.162 474.635L662.812 494.315L663.792 494.535L668.192 474.635L676.032 439.135H665.452ZM591.232 494.335C593.362 494.335 595.522 493.875 597.572 492.925C599.072 492.225 600.402 491.305 601.542 490.205L609.972 515.985C609.972 515.985 553.012 517.375 552.102 515.245C551.192 513.115 578.362 501.915 594.782 503.105L590.832 494.315C590.962 494.335 591.102 494.335 591.232 494.335ZM461.812 192.755L455.582 193.235C457.692 193.275 459.572 194.765 459.992 196.935L471.312 254.675L471.502 255.675L471.612 256.215L487.212 335.805C487.532 337.445 486.942 339.055 485.782 340.095L490.682 335.985C492.592 334.375 493.482 331.855 493.002 329.405L478.602 255.945L478.552 255.675L478.352 254.675L466.992 196.695C466.522 194.265 464.292 192.565 461.812 192.755ZM458.742 294.154L467.992 285.574L467.372 282.404L453.742 292.084L463.042 354.344L446.642 351.904C445.422 351.694 444.312 352.634 444.312 353.864V362.084H503.482C503.482 361.104 502.772 360.284 501.812 360.124L468.142 355.104L458.742 294.154ZM469.002 514.414C482.192 514.734 509.102 514.984 542.962 515.084C544.342 515.084 545.462 516.214 545.452 517.594C545.452 518.974 544.332 520.084 542.952 520.084C499.192 519.954 466.942 519.564 460.772 519.094C460.262 519.054 459.762 518.994 459.292 518.894C457.312 518.554 455.702 517.824 454.382 516.674C450.522 513.304 450.232 507.404 450.622 504.764C450.942 502.594 451.932 500.804 453.432 499.274C453.302 501.374 453.072 503.344 452.702 505.034L453.472 505.284C453.474 505.281 453.479 505.269 453.488 505.25C453.641 504.914 454.845 502.261 456.782 499.634V499.624C459.192 496.354 462.712 493.104 466.692 494.344C466.382 495.474 466.042 496.694 465.682 497.954H465.672C465.302 499.284 464.902 500.664 464.492 502.044C464.002 503.724 463.502 505.404 463.012 507.004C462.611 506.536 462.2 506.049 461.776 505.546C461.44 505.148 461.096 504.74 460.742 504.324H460.732C460.722 504.314 460.722 504.314 460.722 504.304L460.588 504.145C460.3 503.806 460.007 503.46 459.722 503.114C459.292 502.604 458.862 502.094 458.412 501.564H458.402C456.822 502.714 455.792 503.994 455.572 505.484C455.332 507.104 455.532 511.044 457.662 512.904C458.382 513.524 459.382 513.904 460.722 514.054C460.092 515.844 459.592 517.034 459.322 517.254C459.142 517.384 459.092 517.634 459.222 517.814C459.282 517.904 459.362 517.964 459.452 517.984C459.492 517.994 459.522 517.994 459.552 517.994L459.782 517.914C460.162 517.654 460.792 516.204 461.532 514.124C462.982 514.224 465.512 514.324 469.002 514.414ZM453.542 495.756C453.612 489.206 452.932 482.446 452.682 480.176C450.472 482.296 448.522 484.906 446.822 487.686C448.822 490.106 450.832 492.516 452.772 494.836C453.032 495.146 453.292 495.456 453.542 495.756ZM453.302 478.506L452.722 479.026C450.282 481.226 448.132 484.036 446.282 487.036C435.022 473.446 423.902 459.626 424.332 458.556C424.872 457.206 440.582 466.956 454.262 477.226C459.282 480.986 464.022 484.816 467.652 488.196C468.022 488.536 468.372 488.876 468.712 489.206C468.892 489.376 469.072 489.546 469.242 489.726C469.432 489.906 469.612 490.086 469.782 490.266C470.002 490.486 470.212 490.706 470.422 490.926C473.992 489.666 477.622 488.346 481.022 486.736C481.612 486.446 482.192 486.156 482.762 485.856C483.252 485.596 483.732 485.336 484.212 485.066C484.222 485.056 484.242 485.046 484.252 485.036C484.452 484.926 484.662 484.806 484.862 484.686C486.262 483.866 487.642 482.976 488.982 482.016C502.432 472.446 512.832 456.496 514.762 443.026C515.232 439.766 515.202 436.656 514.602 433.816C511.842 420.716 496.712 412.916 482.082 405.376C479.056 403.815 475.677 402.272 472.231 400.697C458.765 394.546 444.253 387.916 445.582 377.876C446.032 374.526 447.242 371.246 449.222 368.086H471.552C468.592 370.906 465.572 374.206 464.632 378.296C463.122 384.866 470.562 393.806 484.372 400.936C499.312 408.636 516.242 417.366 519.492 432.786C519.812 434.266 520.002 435.796 520.062 437.376C520.442 445.756 517.452 455.416 511.402 465.086C505.992 473.726 498.752 481.346 490.952 486.726H490.942C490.462 487.056 489.982 487.376 489.502 487.696H489.492C489.082 487.966 488.672 488.226 488.262 488.476C488.042 488.616 487.822 488.746 487.592 488.876C487.252 489.086 486.912 489.276 486.572 489.476H486.552C486.062 489.756 485.572 490.026 485.082 490.286C484.102 490.796 483.112 491.276 482.102 491.736C482.372 492.476 482.712 493.206 483.092 493.906C483.932 495.406 485.012 496.816 486.332 498.056C487.142 498.826 488.012 499.496 488.922 500.076L469.012 514.086C469.012 514.086 466.912 511.636 463.632 507.746C464.292 505.626 464.942 503.426 465.532 501.406C465.932 500.026 466.302 498.726 466.622 497.596V497.586C467.042 496.121 467.367 494.942 467.559 494.245L467.572 494.196L467.672 493.836L467.322 493.706C466.042 493.226 464.822 493.156 463.662 493.376H463.652C462.572 493.576 461.552 494.026 460.602 494.646C460.582 494.656 460.552 494.676 460.523 494.696L460.522 494.696C460.522 494.696 460.512 494.706 460.492 494.716C458.852 495.806 457.412 497.376 456.232 498.966C455.302 500.216 454.532 501.476 453.952 502.526C454.112 501.246 454.222 499.866 454.282 498.456C454.572 498.206 454.872 497.966 455.192 497.726C454.912 497.396 454.632 497.056 454.342 496.716C454.352 496.446 454.352 496.166 454.352 495.886C454.442 487.806 453.412 479.396 453.392 479.276L453.302 478.506Z" fill="#1000CD"></path><path d="M651.163 255.105C648.293 256.565 645.043 257.775 641.863 258.745C640.883 259.035 639.923 259.315 638.973 259.555C640.233 259.825 641.273 260.275 641.863 261.005C642.093 261.265 642.243 261.575 642.333 261.915C642.733 263.515 642.453 267.565 641.913 272.135C646.353 271.425 649.303 266.645 651.163 261.895C652.373 258.805 653.123 255.725 653.523 253.795C652.783 254.245 651.993 254.685 651.163 255.105Z" fill="#7D4921"></path><path d="M691.784 297.305C681.394 282.185 674.324 274.955 670.134 269.835C669.514 269.075 668.604 268.655 667.664 268.645C667.214 268.645 666.754 268.735 666.314 268.925L651.164 275.625L641.864 279.735L640.814 280.205L638.204 281.355C638.204 281.355 625.484 295.845 626.274 314.115C626.304 314.835 626.354 315.545 626.424 316.275C627.144 323.425 627.334 334.745 627.284 346.165L635.054 348.005C635.534 347.265 635.954 346.525 636.154 345.995L651.944 298.635C653.984 292.525 659.364 288.455 665.374 287.795C665.544 287.775 665.704 287.755 665.874 287.745C666.044 287.725 666.214 287.715 666.394 287.715C668.304 287.625 670.264 287.875 672.184 288.515C680.564 291.305 685.094 300.375 682.304 308.755L666.484 356.195C666.394 356.465 666.304 356.735 666.194 357.015C666.124 357.205 666.054 357.405 665.974 357.605C665.854 357.895 665.734 358.195 665.604 358.505C665.344 359.125 665.054 359.775 664.724 360.445C664.624 360.665 664.514 360.885 664.394 361.105C664.284 361.325 664.164 361.555 664.044 361.785C663.934 362.005 663.804 362.235 663.674 362.465C663.554 362.695 663.434 362.915 663.284 363.155C663.164 363.385 663.034 363.615 662.884 363.855C662.594 364.355 662.274 364.865 661.944 365.385C661.824 365.575 661.694 365.765 661.564 365.965C661.354 366.285 661.134 366.605 660.914 366.925C660.734 367.185 660.554 367.435 660.364 367.695C659.204 369.295 657.914 370.865 656.484 372.345C656.334 372.505 656.174 372.675 656.014 372.825C655.164 373.685 654.264 374.505 653.334 375.265C652.904 375.625 652.454 375.975 652.004 376.305C651.974 376.335 651.934 376.355 651.904 376.375C651.664 376.555 651.414 376.735 651.164 376.895V376.905C650.404 377.425 649.604 377.915 648.794 378.355C649.574 378.295 650.364 378.235 651.164 378.175C667.934 376.885 687.794 375.305 692.094 373.085C693.694 362.745 700.444 314.985 691.784 297.305Z" fill="#E6E6E6"></path><path d="M626.594 380.644C627.074 380.394 628.574 380.144 630.814 379.884L626.654 378.904C626.634 379.524 626.614 380.104 626.594 380.644Z" fill="#E6E6E6"></path><path d="M651.563 235.555C651.583 235.525 652.103 234.885 652.733 235.155L653.133 234.245C652.333 233.905 651.623 234.195 651.163 234.555C650.993 234.685 650.863 234.825 650.773 234.945L651.163 235.245L651.563 235.555Z" fill="#383838"></path><path d="M655.884 233.055C655.414 231.915 654.804 231.195 654.074 230.915C653.884 230.835 653.674 230.785 653.464 230.775C652.904 230.735 652.344 230.925 651.824 231.225C651.594 231.365 651.374 231.525 651.164 231.705C649.874 232.765 648.894 234.385 648.734 234.655L649.604 235.165C649.864 234.715 650.454 233.845 651.164 233.105C651.864 232.345 652.684 231.715 653.394 231.765C653.994 231.815 654.514 232.375 654.954 233.435C656.174 236.405 654.454 241.145 652.694 242.895C652.284 243.305 651.694 243.745 651.164 243.545C651.154 243.545 651.134 243.545 651.124 243.535C650.854 243.425 650.684 243.245 650.614 242.985C650.434 242.355 650.734 241.395 651.164 240.485C651.594 239.555 652.154 238.685 652.474 238.235L651.664 237.645C651.594 237.735 651.404 238.005 651.164 238.395C650.424 239.565 649.234 241.785 649.654 243.255C649.814 243.815 650.184 244.225 650.734 244.455C650.874 244.515 651.014 244.555 651.164 244.575C651.244 244.585 651.334 244.595 651.414 244.595C652.064 244.595 652.744 244.255 653.404 243.605C655.594 241.415 657.184 236.225 655.884 233.055Z" fill="#383838"></path><path d="M636.083 228.244L634.773 227.574C635.333 228.544 635.783 229.674 636.083 230.914C636.353 230.784 636.583 230.554 636.733 230.264C637.113 229.524 636.823 228.624 636.083 228.244Z" fill="#383838"></path><path d="M629.452 225.555H629.272C629.102 225.565 628.942 225.595 628.782 225.635C628.662 225.735 628.552 225.875 628.472 226.035C628.092 226.765 628.382 227.675 629.122 228.055L634.272 230.685C633.342 227.685 631.452 225.555 629.452 225.555Z" fill="#383838"></path><path d="M629.395 232.404C628.555 232.404 627.875 233.084 627.875 233.924C627.875 234.764 628.555 235.444 629.395 235.444C630.235 235.444 630.915 234.764 630.915 233.924C630.915 233.084 630.235 232.404 629.395 232.404Z" fill="#383838"></path><path d="M623.355 249.714L623.145 250.694C623.585 250.784 624.005 250.824 624.395 250.824C627.925 250.824 629.415 247.414 629.435 247.374L628.515 246.984C628.455 247.134 626.975 250.464 623.355 249.714Z" fill="#383838"></path><path d="M617.755 230.885C617.045 230.885 616.465 231.465 616.465 232.185C616.465 232.895 617.045 233.475 617.755 233.475C618.475 233.475 619.055 232.895 619.055 232.185C619.055 231.465 618.475 230.885 617.755 230.885Z" fill="#383838"></path><path d="M619.353 224.395C619.063 224.365 618.763 224.415 618.483 224.555L614.803 226.435C614.573 227.425 614.463 228.535 614.453 229.695C614.513 229.705 614.583 229.705 614.643 229.705C614.883 229.705 615.113 229.645 615.333 229.535L619.853 227.225C620.063 227.115 620.243 226.955 620.373 226.765C620.093 225.835 619.743 225.035 619.363 224.395H619.353V224.395Z" fill="#383838"></path><path d="M587.432 372.036L573.142 368.086H573.132H539.752C538.902 368.796 538.102 369.586 537.352 370.446C532.072 376.546 530.792 384.926 534.032 392.326L543.462 412.506L556.492 398.656C562.112 392.666 570.052 389.236 578.272 389.236H609.842C609.522 388.506 609.342 387.686 609.342 386.836C609.342 383.536 612.022 380.856 615.322 380.856H619.292L587.432 372.036Z" fill="#2F2933"></path><path d="M604.811 472.986L587.431 435.776L581.571 423.236H580.041L558.941 445.666L577.631 485.676C580.121 491.006 585.331 494.186 590.831 494.316C590.961 494.336 591.101 494.336 591.231 494.336C593.361 494.336 595.521 493.876 597.571 492.926C599.071 492.226 600.401 491.306 601.541 490.206C605.691 486.296 607.321 480.216 605.471 474.636C605.281 474.076 605.061 473.526 604.811 472.986Z" fill="#2F2933"></path><path d="M558.613 362.086C558.753 362.166 558.893 362.246 559.033 362.326C559.363 362.506 559.713 362.676 560.063 362.826C560.233 362.906 560.403 362.976 560.573 363.036C560.683 363.086 560.783 363.126 560.893 363.166C560.993 363.206 561.103 363.246 561.213 363.276C561.413 363.356 561.633 363.426 561.843 363.496C561.873 363.506 561.913 363.516 561.943 363.526C562.263 363.626 562.583 363.706 562.903 363.786L581.033 368.086H586.053V364.786V362.086H558.613V362.086Z" fill="#E4F3F3"></path><path d="M556.422 362.086H558.602H558.612C558.752 362.166 558.892 362.246 559.032 362.326L556.422 362.086Z" fill="#D9E8E8"></path><path d="M626.421 316.275C626.351 315.545 626.301 314.835 626.271 314.115L619.091 331.905L618.771 332.755C618.511 333.455 617.861 334.535 617.171 335.485L587.431 332.775L568.531 331.055L559.321 330.215C555.221 329.845 551.341 331.055 548.281 333.335C550.531 334.855 552.721 336.475 554.441 337.795C557.821 333.855 563.031 331.685 568.421 332.315C569.041 332.385 569.661 332.505 570.281 332.645L627.281 346.165C627.331 334.745 627.141 323.425 626.421 316.275Z" fill="#CCCCCC"></path><path d="M552.412 355.635C550.792 356.725 549.052 357.765 547.512 358.345C547.722 358.525 547.932 358.695 548.152 358.865H549.352V359.695C551.422 360.995 553.812 361.845 556.402 362.085C556.412 362.085 556.412 362.085 556.422 362.085H558.602C555.932 360.545 553.802 358.295 552.412 355.635Z" fill="#CCCCCC"></path><path d="M672.182 288.515C670.262 287.875 668.302 287.625 666.392 287.715C666.222 287.715 666.052 287.735 665.872 287.745C665.702 287.755 665.542 287.775 665.372 287.795C659.362 288.455 653.982 292.525 651.942 298.635L636.152 345.995C635.952 346.525 635.532 347.265 635.052 348.005L627.282 346.165L570.282 332.645C569.662 332.505 569.042 332.385 568.422 332.315C563.032 331.685 557.822 333.855 554.442 337.795C552.832 339.675 551.632 341.955 551.022 344.525C550.092 348.435 550.692 352.345 552.412 355.635C553.802 358.295 555.932 360.545 558.602 362.085H558.612H586.052V364.785V368.085H581.032L587.432 369.605L626.652 378.905L630.812 379.885L634.762 380.825L634.962 380.855H641.662H641.702C641.762 380.845 641.812 380.845 641.862 380.825C644.322 380.395 646.642 379.535 648.792 378.355C649.602 377.915 650.402 377.425 651.162 376.905V376.895C651.412 376.725 651.662 376.545 651.902 376.375C651.932 376.355 651.972 376.335 652.002 376.305C652.452 375.965 652.902 375.615 653.332 375.265C654.262 374.505 655.162 373.685 656.012 372.825C656.172 372.665 656.322 372.505 656.482 372.345C657.912 370.865 659.202 369.295 660.362 367.695C660.552 367.445 660.732 367.185 660.912 366.925C661.132 366.605 661.352 366.285 661.562 365.965C661.692 365.775 661.812 365.575 661.942 365.385C662.272 364.865 662.592 364.355 662.882 363.855C663.022 363.625 663.152 363.385 663.282 363.155C663.422 362.925 663.552 362.695 663.672 362.465C663.802 362.235 663.932 362.005 664.042 361.785C664.162 361.555 664.272 361.335 664.392 361.105C664.502 360.885 664.612 360.665 664.722 360.445C665.052 359.775 665.342 359.125 665.602 358.505C665.732 358.195 665.852 357.895 665.972 357.605C666.052 357.405 666.122 357.215 666.192 357.015C666.302 356.735 666.392 356.465 666.482 356.195L682.302 308.755C685.092 300.375 680.562 291.305 672.182 288.515Z" fill="#F2F2F2"></path><path d="M562.524 365.145L561.504 364.865L558.544 364.045C558.314 363.985 558.074 363.925 557.844 363.865C556.204 363.475 554.564 363.285 552.934 363.285C552.334 363.285 551.734 363.315 551.144 363.365C550.544 363.415 549.954 363.495 549.374 363.595C549.074 363.645 548.784 363.705 548.494 363.765C548.004 363.875 547.524 364.005 547.044 364.155C546.884 364.185 546.724 364.235 546.574 364.295C546.314 364.375 546.054 364.465 545.784 364.575C545.594 364.645 545.414 364.715 545.224 364.785C545.104 364.835 544.984 364.885 544.854 364.945C544.664 365.025 544.484 365.105 544.294 365.195C543.754 365.445 543.224 365.715 542.714 366.015C542.454 366.165 542.194 366.325 541.944 366.485C541.694 366.645 541.444 366.805 541.204 366.985C541.194 366.975 541.194 366.985 541.184 366.995C540.944 367.155 540.714 367.325 540.484 367.505C540.234 367.685 539.994 367.885 539.754 368.085H573.134L562.524 365.145Z" fill="#ABB8BB"></path><path d="M533.272 354.665C532.622 355.855 531.172 356.825 529.492 357.515C529.592 358.335 529.812 358.865 530.332 358.865C531.542 358.865 536.522 357.465 540.402 356.315C537.502 354.525 534.292 352.785 533.272 354.665Z" fill="#B08566"></path><path d="M530.702 333.624C528.512 332.414 526.592 331.624 525.402 331.714C520.842 332.044 504.832 348.494 506.532 353.684C508.232 358.864 514.442 358.864 514.442 358.864C514.852 358.864 515.252 358.834 515.652 358.774C515.212 358.344 514.842 357.754 514.592 356.984C513.402 353.344 523.182 340.854 530.702 333.624Z" fill="#B08566"></path><path d="M660.322 245.145C659.402 245.045 658.562 244.755 657.872 244.225C657.252 243.765 656.742 243.115 656.382 242.255C656.202 241.825 656.712 240.225 657.372 238.155C657.902 234.425 657.202 232.045 656.002 230.655C654.672 229.105 652.712 228.775 651.162 229.195C649.812 229.555 648.752 230.455 648.632 231.605C648.632 231.625 648.622 231.645 648.622 231.675C648.422 232.845 645.922 239.615 643.142 237.965C642.202 237.405 642.022 236.395 642.002 234.555C641.982 232.855 642.112 230.445 641.912 227.045C641.892 227.035 641.882 227.015 641.862 227.005C639.242 224.935 637.682 221.275 636.762 217.745C636.642 217.315 636.542 216.885 636.442 216.465C632.812 216.025 629.262 215.415 626.572 214.725C626.282 215.345 625.892 216.235 625.452 217.365C624.542 219.685 623.412 223.025 622.542 227.075C622.302 228.155 622.082 229.275 621.902 230.455C621.642 230.835 621.362 231.285 621.042 231.765C619.872 233.585 618.342 236.005 617.142 238.135C616.782 238.755 616.452 239.355 616.172 239.905C615.442 241.295 614.992 242.375 615.092 242.795C615.352 243.905 618.892 243.765 621.222 243.555C621.532 248.525 622.542 253.825 624.642 259.195C625.192 260.585 626.552 261.485 628.052 261.445C630.322 261.385 634.422 260.745 638.972 259.555C639.922 259.315 640.882 259.035 641.862 258.745C645.042 257.775 648.292 256.565 651.162 255.105C651.992 254.685 652.782 254.245 653.522 253.795C653.122 255.725 652.372 258.805 651.162 261.895C649.302 266.645 646.352 271.425 641.912 272.135C641.892 272.265 641.882 272.405 641.862 272.535C641.562 275.055 641.182 277.715 640.812 280.205L641.862 279.735L651.162 275.625L666.312 268.925C666.752 268.735 667.212 268.645 667.662 268.645C664.382 263.075 659.172 252.785 660.322 245.145ZM653.462 230.775C653.672 230.785 653.882 230.835 654.072 230.915C654.802 231.195 655.412 231.915 655.882 233.055C657.182 236.225 655.592 241.415 653.402 243.605C652.742 244.255 652.062 244.595 651.412 244.595C651.332 244.595 651.242 244.585 651.162 244.575C651.012 244.555 650.872 244.515 650.732 244.455C650.182 244.225 649.812 243.815 649.652 243.255C649.232 241.785 650.422 239.565 651.162 238.395C651.402 238.005 651.592 237.735 651.662 237.645L652.472 238.235C652.152 238.685 651.592 239.555 651.162 240.485C650.732 241.395 650.432 242.355 650.612 242.985C650.682 243.245 650.852 243.425 651.122 243.535C651.132 243.545 651.152 243.545 651.162 243.545C651.692 243.745 652.282 243.305 652.692 242.895C654.452 241.145 656.172 236.405 654.952 233.435C654.512 232.375 653.992 231.815 653.392 231.765C652.682 231.715 651.862 232.345 651.162 233.105C650.452 233.845 649.862 234.715 649.602 235.165L648.732 234.655C648.892 234.385 649.872 232.765 651.162 231.705C651.372 231.525 651.592 231.365 651.822 231.225C652.342 230.925 652.902 230.735 653.462 230.775ZM650.772 234.945C650.862 234.825 650.992 234.685 651.162 234.555C651.622 234.195 652.332 233.905 653.132 234.245L652.732 235.155C652.102 234.885 651.582 235.525 651.562 235.555L651.162 235.245L650.772 234.945ZM624.502 227.345C625.642 225.225 627.302 223.995 629.172 223.875C631.382 223.745 633.412 225.195 634.772 227.575L636.082 228.245C636.822 228.625 637.112 229.525 636.732 230.265C636.582 230.555 636.352 230.785 636.082 230.915C636.302 231.805 636.452 232.755 636.512 233.745C636.872 239.505 634.202 244.205 630.452 244.445C630.352 244.445 630.252 244.455 630.162 244.455C626.522 244.455 623.452 240.195 623.102 234.575C622.932 231.895 623.432 229.335 624.502 227.345ZM624.392 250.825C624.002 250.825 623.582 250.785 623.142 250.695L623.352 249.715C626.972 250.465 628.452 247.135 628.512 246.985L629.432 247.375C629.412 247.415 627.922 250.825 624.392 250.825Z" fill="#C79775"></path><path d="M630.339 242.765C633.059 242.595 635.119 238.505 634.829 233.845C634.759 232.725 634.559 231.655 634.269 230.685L629.119 228.055C628.379 227.675 628.089 226.765 628.469 226.035C628.549 225.875 628.659 225.735 628.779 225.635C627.699 225.885 626.729 226.765 625.979 228.135C625.059 229.855 624.629 232.105 624.779 234.475C625.069 239.135 627.619 242.945 630.339 242.765ZM629.389 232.405C630.229 232.405 630.909 233.085 630.909 233.925C630.909 234.765 630.229 235.445 629.389 235.445C628.549 235.445 627.869 234.765 627.869 233.925C627.869 233.085 628.549 232.405 629.389 232.405Z" fill="#C79775"></path><path d="M554.441 337.795C552.721 336.475 550.531 334.855 548.281 333.335C544.271 330.614 540.071 328.194 538.031 328.345C536.671 328.444 533.891 330.564 530.701 333.624C523.181 340.855 513.401 353.345 514.591 356.985C514.841 357.754 515.211 358.345 515.651 358.775C515.681 358.804 515.711 358.835 515.741 358.864C518.271 361.194 523.061 358.864 523.061 358.864C524.801 358.864 527.341 358.405 529.491 357.514C531.171 356.824 532.621 355.855 533.271 354.665C534.291 352.785 537.501 354.525 540.401 356.314C542.471 357.574 544.391 358.864 545.241 358.864C545.901 358.864 546.671 358.675 547.511 358.345C549.051 357.764 550.791 356.725 552.411 355.634C550.691 352.345 550.091 348.434 551.021 344.525C551.631 341.955 552.831 339.675 554.441 337.795Z" fill="#C79775"></path><path d="M626.575 214.724C625.715 214.514 624.945 214.284 624.285 214.064C624.505 215.324 624.865 216.474 625.455 217.364C625.895 216.234 626.285 215.344 626.575 214.724Z" fill="#91826C"></path><path d="M636.513 233.745C636.453 232.755 636.303 231.805 636.083 230.915C635.783 229.675 635.333 228.545 634.773 227.575C633.413 225.195 631.383 223.745 629.173 223.875C627.303 223.995 625.643 225.225 624.503 227.345C623.433 229.335 622.933 231.895 623.103 234.575C623.453 240.195 626.523 244.455 630.163 244.455C630.253 244.455 630.353 244.445 630.453 244.445C634.203 244.205 636.873 239.505 636.513 233.745ZM630.343 242.765C627.623 242.945 625.073 239.135 624.783 234.475C624.633 232.105 625.063 229.855 625.983 228.135C626.733 226.765 627.703 225.885 628.783 225.635C628.943 225.595 629.103 225.565 629.273 225.555H629.453C631.453 225.555 633.343 227.685 634.273 230.685C634.563 231.655 634.763 232.725 634.833 233.845C635.123 238.505 633.063 242.595 630.343 242.765Z" fill="#91826C"></path><path d="M617.144 220.715C615.594 220.805 614.274 222.025 613.424 224.145C612.674 226.015 612.344 228.435 612.504 230.975C612.764 235.175 614.214 238.525 616.174 239.905C616.454 239.355 616.784 238.755 617.144 238.135C615.894 237.115 614.714 234.355 614.494 230.845C614.474 230.455 614.454 230.075 614.454 229.695C614.464 228.535 614.574 227.425 614.804 226.435C614.934 225.875 615.094 225.355 615.284 224.885C615.814 223.565 616.554 222.755 617.264 222.705H617.334C617.994 222.705 618.724 223.325 619.354 224.395H619.364C619.744 225.035 620.094 225.835 620.374 226.765C620.694 227.845 620.934 229.085 621.014 230.445C621.044 230.895 621.054 231.345 621.044 231.765C621.364 231.285 621.644 230.835 621.904 230.455C622.084 229.275 622.304 228.155 622.544 227.075C621.614 223.155 619.524 220.565 617.144 220.715Z" fill="#91826C"></path><path d="M545.243 113.705C540.893 113.705 537.363 117.235 537.363 121.585C537.363 125.945 540.893 129.475 545.243 129.475C549.603 129.475 553.133 125.945 553.133 121.585C553.133 117.235 549.603 113.705 545.243 113.705Z" fill="#91826C"></path><path d="M545.243 358.865H530.333H523.063C523.063 358.865 518.273 361.195 515.743 358.865H514.443H507.113V361.715H549.353V359.695V358.865H548.153H545.243Z" fill="#91826C"></path><path d="M562.901 363.786C562.571 363.706 562.251 363.626 561.941 363.526C561.911 363.516 561.871 363.506 561.841 363.496C561.631 363.426 561.411 363.356 561.211 363.276C561.101 363.246 560.991 363.206 560.891 363.166C560.781 363.126 560.681 363.086 560.571 363.036C560.401 362.976 560.231 362.896 560.061 362.826C559.711 362.676 559.361 362.506 559.031 362.326L556.421 362.086C556.411 362.086 556.411 362.086 556.401 362.086H503.481H444.311H423.051V368.086H449.221H471.551H539.751C539.991 367.886 540.231 367.686 540.481 367.506C540.711 367.326 540.941 367.156 541.181 366.996C541.191 366.986 541.191 366.976 541.201 366.986C541.441 366.806 541.691 366.646 541.941 366.486C542.191 366.326 542.451 366.166 542.711 366.016C543.221 365.716 543.751 365.446 544.291 365.196C544.481 365.106 544.661 365.026 544.851 364.946C544.981 364.886 545.101 364.836 545.221 364.786C545.411 364.716 545.591 364.646 545.781 364.576C546.051 364.466 546.311 364.376 546.571 364.296C546.731 364.246 546.891 364.196 547.041 364.156C547.521 364.006 548.001 363.876 548.491 363.766C548.781 363.706 549.071 363.646 549.371 363.596C549.951 363.496 550.541 363.416 551.141 363.366C551.722 363.317 552.313 363.288 552.904 363.287C553.357 363.286 553.812 363.303 554.268 363.332C554.479 363.345 554.691 363.367 554.902 363.387C555.195 363.415 555.488 363.448 555.781 363.489C555.987 363.517 556.192 363.545 556.397 363.579C556.879 363.66 557.36 363.75 557.841 363.866C558.071 363.926 558.311 363.986 558.541 364.046L561.501 364.866L562.521 365.146L573.131 368.086H573.141H581.031L562.901 363.786Z" fill="#E8F6F6"></path><path d="M661.522 392.824H626.432H615.322C612.872 392.824 610.772 391.354 609.842 389.234H578.272C570.052 389.234 562.112 392.664 556.492 398.654L543.462 412.504L520.062 437.374C520.442 445.754 517.452 455.414 511.402 465.084C505.992 473.724 498.752 481.344 490.952 486.724C490.942 486.724 490.942 486.724 490.942 486.724C490.462 487.064 489.982 487.384 489.502 487.694H489.492C489.082 487.964 488.672 488.224 488.262 488.474C488.042 488.614 487.822 488.744 487.592 488.874C487.252 489.084 486.912 489.274 486.572 489.474C486.562 489.474 486.562 489.474 486.552 489.474C486.062 489.754 485.572 490.024 485.082 490.284C484.102 490.794 483.112 491.274 482.102 491.734C482.372 492.474 482.712 493.204 483.092 493.904C483.932 495.404 485.012 496.814 486.332 498.054C487.142 498.824 488.012 499.494 488.922 500.074C491.682 501.814 494.832 502.674 497.972 502.674C502.502 502.674 507.012 500.874 510.362 497.324L558.942 445.664L580.042 423.234H581.572H587.432H641.862H651.162H667.122C670.742 423.234 674.102 422.104 676.862 420.174C676.952 420.144 677.042 420.104 677.132 420.074C682.832 416.384 686.792 407.054 689.282 397.664L689.302 397.584L690.292 392.824H677.562H661.522Z" fill="#464149"></path><path d="M692.293 372.984C692.233 373.024 692.163 373.054 692.093 373.084C687.793 375.304 667.933 376.884 651.163 378.174C650.363 378.234 649.573 378.294 648.793 378.354C646.643 379.534 644.323 380.394 641.863 380.824C641.813 380.844 641.763 380.844 641.703 380.854H641.863H647.633H651.163H692.373C692.823 376.374 692.773 373.294 692.293 372.984Z" fill="#464149"></path><path d="M634.964 380.855L634.764 380.825L630.814 379.885C628.574 380.145 627.074 380.395 626.594 380.645C626.454 380.715 626.404 380.785 626.434 380.855H626.594H634.964V380.855Z" fill="#464149"></path><path d="M484.213 485.063C484.223 485.053 484.243 485.043 484.253 485.033C484.453 484.923 484.663 484.803 484.863 484.683C486.263 483.863 487.643 482.973 488.983 482.013C502.433 472.443 512.833 456.493 514.763 443.023L485.593 474.023C482.243 477.583 480.733 482.213 481.023 486.733C481.613 486.443 482.193 486.153 482.763 485.853C483.253 485.593 483.733 485.333 484.213 485.063Z" fill="#464149"></path><g opacity="0.26"><path opacity="0.26" d="M482.105 491.734C478.505 493.374 474.765 494.694 471.125 495.974C470.405 496.224 469.685 496.484 468.985 496.734C468.515 496.904 468.045 497.064 467.585 497.234C467.345 497.324 467.115 497.404 466.895 497.494C466.805 497.524 466.715 497.564 466.625 497.594C466.305 498.724 465.935 500.024 465.535 501.404C465.765 501.274 465.995 501.134 466.235 500.984C468.505 499.604 476.515 496.424 483.095 493.904C482.715 493.204 482.375 492.474 482.105 491.734Z" fill="black"></path><path opacity="0.26" d="M460.604 494.645C461.554 494.025 462.574 493.575 463.654 493.375C463.654 493.375 463.654 493.375 463.664 493.375C464.674 492.985 465.724 492.595 466.794 492.215C467.394 491.995 468.004 491.785 468.604 491.565C468.894 491.465 469.174 491.365 469.464 491.265C469.784 491.155 470.104 491.035 470.424 490.925C470.214 490.705 470.004 490.485 469.784 490.265C469.614 490.085 469.434 489.905 469.244 489.725C469.074 489.545 468.894 489.375 468.714 489.205C468.374 488.875 468.024 488.535 467.654 488.195C462.874 489.905 458.424 492.425 454.354 495.885C454.354 496.165 454.354 496.445 454.344 496.715C454.634 497.055 454.914 497.395 455.194 497.725C456.514 496.735 458.064 495.855 459.764 495.045C460.044 494.905 460.324 494.785 460.604 494.645Z" fill="black"></path><path opacity="0.26" d="M463.614 498.785C463.404 498.875 463.194 498.965 462.994 499.055C462.584 499.235 462.194 499.415 461.814 499.595C461.624 499.685 461.434 499.785 461.244 499.875C461.064 499.965 460.884 500.065 460.704 500.155C460.344 500.345 460.004 500.535 459.674 500.735C459.514 500.825 459.354 500.925 459.194 501.025C458.924 501.205 458.664 501.375 458.414 501.555V501.565C458.864 502.095 459.294 502.605 459.724 503.115C460.054 503.515 460.394 503.915 460.724 504.305C460.734 504.315 460.734 504.315 460.744 504.325C460.804 504.295 461.854 503.655 464.494 502.045C464.904 500.665 465.304 499.285 465.674 497.955C464.964 498.235 464.274 498.505 463.614 498.785Z" fill="black"></path></g><g style="mix-blend-mode:color-burn"><path d="M254.254 228.805H290.744V255.605H250.614C248.354 268.675 245.444 281.765 242.184 294.485H256.634V295.485H241.924C231.274 336.705 216.984 373.825 209.164 392.835H217.614C230.354 382.075 249.884 368.685 268.534 368.315C270.164 374.675 268.944 383.145 265.784 392.835H280.954C281.384 385.855 281.504 378.855 281.164 371.905C284.164 370.615 286.974 370.055 289.614 370.055C302.804 370.055 311.424 384.245 315.434 392.835H317.304C315.424 373.505 317.074 356.335 321.604 340.895V195.355H255.294C255.784 206.055 255.364 217.305 254.254 228.805Z" fill="#F3ECE6"></path><path d="M251.434 167.086C253.544 175.586 254.764 184.746 255.244 194.356H321.604V167.086H251.434Z" fill="#F3ECE6"></path><path d="M278.062 419.637H254.122C230.852 464.407 188.952 516.427 188.952 516.427L160.402 516.677H292.892C256.942 512.017 270.832 469.317 278.062 419.637Z" fill="#F3ECE6"></path><path d="M204.181 228.806C211.591 205.856 222.601 183.246 238.981 167.086H191.121C194.571 187.136 195.851 208.526 195.921 228.806H204.181Z" fill="#F3ECE6"></path><path d="M194.742 266.985C195.422 263.275 196.172 259.475 197.022 255.605H195.342C195.172 259.505 194.972 263.305 194.742 266.985Z" fill="#F3ECE6"></path></g><g style="mix-blend-mode:soft-light"><path d="M321.105 419.637H278.065C270.835 469.317 256.945 512.017 292.895 516.677H321.605V435.837H321.105V419.637Z" fill="#EEE6DE"></path><path d="M317.303 392.836H321.103V375.917H321.603V340.896C317.073 356.336 315.423 373.506 317.303 392.836Z" fill="#EEE6DE"></path><path d="M315.433 392.837C311.423 384.247 302.803 370.057 289.613 370.057C286.973 370.057 284.163 370.617 281.163 371.907C281.503 378.857 281.383 385.857 280.953 392.837H315.433Z" fill="#EEE6DE"></path><path d="M217.613 392.836H265.783C268.943 383.146 270.163 374.676 268.533 368.316C249.883 368.686 230.353 382.076 217.613 392.836Z" fill="#EEE6DE"></path><path d="M168.123 392.836H209.163C216.983 373.826 231.273 336.706 241.923 295.486H142.133V516.676H160.403L188.953 516.426C188.953 516.426 230.853 464.406 254.123 419.636H168.123V392.836V392.836Z" fill="#EEE6DE"></path><path d="M255.294 195.356H231.874V194.356H255.244C254.764 184.746 253.544 175.586 251.434 167.086H238.984C222.604 183.246 211.594 205.856 204.184 228.806H254.254C255.364 217.306 255.784 206.056 255.294 195.356Z" fill="#EEE6DE"></path><path d="M250.613 255.605H197.023C196.173 259.475 195.423 263.275 194.743 266.985C194.973 263.305 195.173 259.505 195.343 255.605H142.133V294.485H242.183C245.443 281.765 248.353 268.675 250.613 255.605Z" fill="#EEE6DE"></path><path d="M191.123 167.086H163.043V167.586H142.633V186.966H142.133V228.806H195.923C195.853 208.526 194.573 187.136 191.123 167.086Z" fill="#EEE6DE"></path></g><path d="M705.594 113.205H651.164H641.864H619.164V114.205H641.864H651.164H705.594H727.954V113.205H705.594Z" fill="#969696"></path><path d="M651.164 121.086H641.864H619.164V122.086H641.864H651.164H705.594H727.954V121.086H705.594H651.164Z" fill="#969696"></path><path d="M545.742 189.766V255.676H478.552L478.352 254.676H544.742V189.766H545.742Z" fill="#969696"></path><path d="M545.242 94.4453C530.282 94.4453 518.102 106.625 518.102 121.585C518.102 136.385 530.012 148.445 544.742 148.715V179.765H545.742V148.715C560.482 148.445 572.382 136.385 572.382 121.585C572.382 106.625 560.212 94.4453 545.242 94.4453ZM545.742 147.715V130.465H544.742V147.715C530.562 147.445 519.102 135.835 519.102 121.585C519.102 107.175 530.832 95.4453 545.242 95.4453C559.662 95.4453 571.382 107.175 571.382 121.585C571.382 135.835 559.932 147.445 545.742 147.715Z" fill="#969696"></path><path d="M429.824 254.676V255.676H462.134L461.944 254.676H429.824Z" fill="#969696"></path><path d="M417.033 194.856H418.033V123.516H373.633V124.516H417.033V194.856Z" fill="#969696"></path><path d="M429.822 245.675V244.675H398.552V144.035H321.602V145.035H397.552V245.675H429.822Z" fill="#969696"></path><path d="M363.195 186.465C358.735 186.465 355.095 189.965 354.835 194.355H321.605H255.245H231.875V195.355H255.295H321.605H354.835C355.095 199.745 358.735 203.245 363.195 203.245C367.815 203.245 371.575 199.475 371.575 194.855C371.575 190.235 367.815 186.465 363.195 186.465ZM363.195 202.245C359.285 202.245 356.095 199.195 355.835 195.355H363.195V194.355H355.835C356.095 190.515 359.285 187.465 363.195 187.465C367.265 187.465 370.575 190.785 370.575 194.855C370.575 198.925 367.265 202.245 363.195 202.245Z" fill="#969696"></path><path d="M321.102 419.635V435.835H321.602H322.102V419.635H321.602H321.102Z" fill="#969696"></path><path d="M321.102 375.916V392.836H321.602H322.102V375.916H321.602H321.102Z" fill="#969696"></path><path d="M142.133 294.484H111.623H60.5234V295.484H142.133H241.923H256.633V294.484H242.183H142.133Z" fill="#969696"></path><path d="M142.633 186.966V167.586H163.043V167.086V166.586H141.633V186.966H142.133H142.633Z" fill="#969696"></path><g style="mix-blend-mode:soft-light"><path d="M705.591 474.636V348.736L679.391 474.636H705.591Z" fill="#F9F7F4"></path><path d="M705.59 114.205H651.16V121.085H705.59V114.205Z" fill="#F9F7F4"></path><path d="M705.59 81.0859H651.16V113.206H705.59V81.0859Z" fill="#F9F7F4"></path><path d="M651.16 192.926C660.96 196.756 669.31 202.216 669.6 206.986C679.45 206.376 672.93 226.686 673.71 229.996C673.81 230.316 673.91 230.636 674.01 230.956C676.22 237.696 666.41 245.766 660.32 245.146C659.17 252.786 664.38 263.076 667.66 268.646C668.6 268.656 669.51 269.076 670.13 269.836C674.32 274.956 681.39 282.186 691.78 297.306C700.44 314.986 693.69 362.746 692.09 373.086C692.16 373.056 692.23 373.026 692.29 372.986C692.77 373.296 692.82 376.376 692.37 380.856H692.78L705.59 319.276V295.426C705.48 295.866 705.07 296.176 704.63 296.176L704.41 296.156C703.87 296.036 703.53 295.496 703.65 294.956L705.59 286.176V248.276L700.27 269.876L688.64 267.016L702.03 212.676C702.51 210.736 703.88 209.256 705.59 208.566V122.086H651.16V192.926V192.926Z" fill="#F9F7F4"></path><path d="M651.16 429.846V474.636H667.16L674.78 440.136H665.45V439.136H676.03L668.19 474.636H673.27L682.59 429.846H651.16Z" fill="#F9F7F4"></path><path d="M689.28 397.666C686.79 407.056 682.83 416.386 677.13 420.076C677.04 420.106 676.95 420.146 676.86 420.176C674.1 422.106 670.74 423.236 667.12 423.236H651.16V423.846H683.84L689.28 397.666Z" fill="#F9F7F4"></path><path d="M619.3 380.855H626.43C626.4 380.785 626.45 380.715 626.59 380.645C626.61 380.105 626.63 379.525 626.65 378.905L587.43 369.605V372.035L619.29 380.855H619.3Z" fill="#F9F7F4"></path><path d="M587.43 332.776L617.17 335.486C617.86 334.536 618.51 333.456 618.77 332.756L619.09 331.906L626.27 314.116C625.48 295.846 638.2 281.356 638.2 281.356L640.81 280.206C641.18 277.716 641.56 275.056 641.86 272.536V261.006C641.27 260.276 640.23 259.826 638.97 259.556C634.42 260.746 630.32 261.386 628.05 261.446C626.55 261.486 625.19 260.586 624.64 259.196C622.54 253.826 621.53 248.526 621.22 243.556C618.89 243.766 615.35 243.906 615.09 242.796C614.99 242.376 615.44 241.296 616.17 239.906C614.21 238.526 612.76 235.176 612.5 230.976C612.34 228.436 612.67 226.016 613.42 224.146C614.27 222.026 615.59 220.806 617.14 220.716C619.52 220.566 621.61 223.156 622.54 227.076C623.41 223.026 624.54 219.686 625.45 217.366C624.86 216.476 624.5 215.326 624.28 214.066C623.43 213.776 622.77 213.476 622.34 213.176C619.74 211.386 613.65 202.896 620.1 191.286C622.48 187.016 631.88 187.306 641.86 189.896V122.086H619.16V121.086H641.86V114.206H619.16V113.206H641.86V81.0859H587.43V332.776V332.776Z" fill="#F9F7F4"></path><path d="M619.351 224.395C618.721 223.325 617.991 222.705 617.331 222.705H617.261C616.551 222.755 615.811 223.565 615.281 224.885C615.091 225.355 614.931 225.875 614.801 226.435L618.481 224.555C618.761 224.415 619.061 224.365 619.351 224.395Z" fill="#F9F7F4"></path><path d="M614.453 229.696C614.453 230.076 614.473 230.456 614.493 230.846C614.713 234.356 615.893 237.116 617.143 238.136C618.343 236.006 619.873 233.586 621.043 231.766C621.053 231.346 621.043 230.896 621.013 230.446C620.933 229.086 620.693 227.846 620.373 226.766C620.243 226.956 620.063 227.116 619.853 227.226L615.333 229.536C615.113 229.646 614.883 229.706 614.643 229.706C614.583 229.706 614.513 229.706 614.453 229.696ZM617.753 230.886C618.473 230.886 619.053 231.466 619.053 232.186C619.053 232.896 618.473 233.476 617.753 233.476C617.043 233.476 616.463 232.896 616.463 232.186C616.463 231.466 617.043 230.886 617.753 230.886Z" fill="#F9F7F4"></path><path d="M587.43 435.776L604.81 472.986C605.06 473.526 605.28 474.076 605.47 474.636H641.86V429.846H594.22C592.57 429.846 591.22 428.506 591.22 426.846C591.22 425.186 592.57 423.846 594.22 423.846H641.86V423.236H587.43V435.776Z" fill="#F9F7F4"></path><path d="M383.462 449.675C384.112 448.025 409.252 383.565 398.112 332.995C384.412 342.215 373.562 356.315 368.002 365.085C372.192 342.805 367.402 281.375 359.542 281.375C359.492 281.375 359.452 281.375 359.402 281.375C341.822 298.195 328.442 317.565 321.602 340.895V375.915H322.102V392.835H369.512V419.635H322.102V435.835H321.602V516.675H367.562C415.322 510.235 419.192 427.245 412.332 411.105C401.322 419.485 384.082 448.635 383.462 449.675Z" fill="#F9F7F4"></path><path d="M238.98 167.086H251.43C250.71 164.176 249.88 161.336 248.94 158.596C245.42 161.156 242.1 164.006 238.98 167.086Z" fill="#F9F7F4"></path><path d="M155.693 92.7258C137.103 112.656 137.103 177.056 137.103 177.056C137.103 177.056 124.603 109.296 61.863 79.9258C51.2129 143.016 70.523 206.216 89.353 249.276V228.806H142.133V186.966H141.633V166.586H163.043V167.086H191.123C185.763 136.006 175.153 108.166 155.693 92.7258Z" fill="#F9F7F4"></path><path d="M111.621 293.196C100.371 276.216 75.4012 243.926 44.5113 237.066C38.0413 290.116 65.9913 357.826 80.7513 389.046C70.7313 372.366 51.7613 349.236 22.6212 346.906C3.85126 413.256 55.0413 517.586 55.0413 517.586L65.4913 517.496H60.1212C59.8912 517.496 59.7113 517.306 59.7113 517.086C59.7113 516.866 59.8912 516.676 60.1212 516.676H103.681C102.641 513.226 97.8712 496.346 99.9213 483.266L100.011 482.676L100.531 482.976C107.091 486.836 110.661 491.056 111.901 492.706C112.541 490.836 114.831 486.056 122.641 479.026L123.211 478.506L123.311 479.276C123.331 479.436 125.151 494.266 123.731 503.496C127.881 498.156 132.011 495.106 136.981 493.696L137.601 493.516L137.501 494.156C137.351 495.016 134.081 513.606 125.931 516.976L130.061 516.936C130.121 516.786 130.261 516.676 130.431 516.676H142.131V295.486H60.5213V294.486H111.621H142.131V255.606H92.1812C99.6113 271.906 106.731 284.856 111.621 293.196Z" fill="#F9F7F4"></path><path d="M136.572 494.666C131.662 496.236 127.552 499.566 123.342 505.366L122.192 506.946L122.612 505.036C124.332 497.306 122.972 483.576 122.602 480.166C113.412 488.606 112.472 493.646 112.462 493.696L112.292 494.726L111.722 493.846C111.682 493.796 108.292 488.626 100.632 483.986C98.7922 497.156 103.702 513.956 104.532 516.676H113.632C113.852 516.676 114.022 516.856 114.032 517.076L123.182 516.996C123.212 516.826 123.372 516.686 123.552 516.676C131.872 516.396 135.852 498.356 136.572 494.666Z" fill="#F9F7F4"></path></g><path d="M782.219 516.025H727.949C727.729 516.025 727.539 516.205 727.539 516.425C727.539 516.655 727.729 516.835 727.949 516.835H782.219C782.449 516.835 782.629 516.655 782.629 516.425C782.629 516.205 782.449 516.025 782.219 516.025Z" fill="#4D4D4D"></path><path d="M708.791 516.025H670.781L670.621 516.835H708.791C709.011 516.835 709.191 516.655 709.191 516.425C709.191 516.205 709.011 516.025 708.791 516.025Z" fill="#4D4D4D"></path><path d="M734.322 507.556L734.732 509.146L735.112 507.556C736.052 503.636 739.132 493.466 742.142 493.466C742.452 493.466 742.832 493.906 743.182 494.646C744.692 497.916 745.252 506.536 741.612 510.826C741.472 510.996 741.492 511.246 741.662 511.396C741.832 511.546 742.092 511.516 742.232 511.346C746.242 506.626 745.442 497.616 743.912 494.306C743.402 493.206 742.812 492.646 742.142 492.646C738.602 492.646 735.722 502.056 734.702 505.896C733.302 501.236 728.412 486.556 720.052 479.026L719.472 478.506L719.382 479.276C719.362 479.436 717.652 493.266 718.822 502.526C716.622 498.546 711.652 491.376 705.452 493.706L705.102 493.836L705.202 494.196C706.242 497.976 711.532 516.906 712.992 517.916L713.212 517.986C713.332 517.986 713.452 517.926 713.532 517.826C713.662 517.646 713.622 517.396 713.452 517.256C712.482 516.446 708.462 502.936 706.082 494.346C713.472 492.056 719.242 505.156 719.302 505.286L720.072 505.036C718.362 497.316 719.712 483.606 720.092 480.176C729.502 489.196 734.282 507.376 734.322 507.556Z" fill="#4D4D4D"></path><path d="M624.052 516.025C623.832 516.025 623.652 516.205 623.652 516.425C623.652 516.655 623.832 516.835 624.052 516.835H625.862C625.432 516.655 625.062 516.375 624.772 516.025H624.052Z" fill="#4D4D4D"></path><path d="M463.662 493.376C463.652 493.376 463.652 493.376 463.652 493.376C462.572 493.576 461.552 494.026 460.602 494.646C460.582 494.656 460.552 494.676 460.522 494.696C460.522 494.696 460.512 494.706 460.492 494.716C458.852 495.806 457.412 497.376 456.232 498.966C455.302 500.216 454.532 501.476 453.952 502.526C454.112 501.246 454.222 499.866 454.282 498.456C454.312 497.886 454.332 497.306 454.342 496.716C454.352 496.446 454.352 496.166 454.352 495.886C454.442 487.806 453.412 479.396 453.392 479.276L453.302 478.506L452.722 479.026C450.282 481.226 448.132 484.036 446.282 487.036C441.342 495.026 438.512 504.326 437.822 506.756C435.622 504.996 426.712 498.056 423.052 498.056C422.462 498.056 422.222 498.376 422.142 498.576C421.042 501.056 433.702 515.076 436.252 517.856C436.402 518.026 436.662 518.036 436.832 517.886C436.992 517.736 437.002 517.476 436.852 517.316C429.522 509.306 422.302 500.226 422.882 498.906L423.052 498.866C426.862 498.866 437.692 507.686 437.792 507.776L438.292 508.176L438.442 507.556C438.482 507.416 441.292 496.736 446.822 487.686C448.522 484.906 450.472 482.296 452.682 480.176C452.932 482.446 453.612 489.206 453.542 495.756C453.532 496.946 453.492 498.136 453.432 499.276C453.302 501.376 453.072 503.346 452.702 505.036L453.472 505.286C453.502 505.226 454.732 502.416 456.782 499.636C456.782 499.626 456.782 499.626 456.782 499.626C459.192 496.356 462.712 493.106 466.692 494.346C466.382 495.476 466.042 496.696 465.682 497.956H465.672C465.302 499.286 464.902 500.666 464.492 502.046C464.002 503.726 463.502 505.406 463.012 507.006C462.172 509.726 461.372 512.216 460.722 514.056C460.092 515.846 459.592 517.036 459.322 517.256C459.142 517.386 459.092 517.636 459.222 517.816C459.282 517.906 459.362 517.966 459.452 517.986C459.492 517.996 459.522 517.996 459.552 517.996L459.782 517.916C460.162 517.656 460.792 516.206 461.532 514.126C462.182 512.346 462.912 510.096 463.632 507.746C464.292 505.626 464.942 503.426 465.532 501.406C465.932 500.026 466.302 498.726 466.622 497.596C466.622 497.586 466.622 497.586 466.622 497.586C467.052 496.086 467.382 494.886 467.572 494.196L467.672 493.836L467.322 493.706C466.042 493.226 464.822 493.156 463.662 493.376Z" fill="#4D4D4D"></path><path d="M414.991 516.676H367.561H321.601H292.891H160.401H142.131H130.431C130.261 516.676 130.121 516.786 130.061 516.936C130.041 516.986 130.031 517.036 130.031 517.086C130.031 517.306 130.211 517.496 130.431 517.496H414.991C415.211 517.496 415.391 517.306 415.391 517.086C415.391 516.866 415.211 516.676 414.991 516.676Z" fill="#4D4D4D"></path><path d="M137.601 493.516L136.981 493.696C132.011 495.106 127.881 498.156 123.731 503.496C125.151 494.266 123.331 479.436 123.311 479.276L123.211 478.506L122.641 479.026C114.831 486.056 112.541 490.836 111.901 492.706C110.661 491.056 107.091 486.836 100.531 482.976L100.011 482.676L99.921 483.266C97.8708 496.346 102.641 513.226 103.681 516.676H60.1208C59.8909 516.676 59.7109 516.866 59.7109 517.086C59.7109 517.306 59.8909 517.496 60.1208 517.496H65.491H104.011C104.081 517.556 104.171 517.606 104.271 517.606L104.391 517.586C104.451 517.566 104.501 517.536 104.541 517.496H113.631C113.851 517.496 114.031 517.306 114.031 517.086V517.076C114.021 516.856 113.851 516.676 113.631 516.676H104.531C103.701 513.956 98.791 497.156 100.631 483.986C108.291 488.626 111.681 493.796 111.721 493.846L112.291 494.726L112.461 493.696C112.471 493.646 113.411 488.606 122.601 480.166C122.971 483.576 124.331 497.306 122.611 505.036L122.191 506.946L123.341 505.366C127.551 499.566 131.661 496.236 136.571 494.666C135.851 498.356 131.871 516.396 123.551 516.676C123.371 516.686 123.211 516.826 123.181 516.996C123.161 517.026 123.161 517.066 123.161 517.096C123.171 517.326 123.331 517.476 123.581 517.496C124.411 517.466 125.191 517.286 125.931 516.976C134.081 513.606 137.351 495.016 137.501 494.156L137.601 493.516Z" fill="#4D4D4D"></path><path fill-rule="evenodd" clip-rule="evenodd" d="M471.312 254.675L471.502 255.675L487.212 335.805C487.532 337.445 486.942 339.055 485.782 340.095C485.782 340.095 485.782 340.096 485.781 340.097C485.781 340.098 485.78 340.1 485.78 340.101C485.778 340.103 485.776 340.105 485.772 340.105C485.172 340.645 484.432 341.035 483.582 341.205C481.092 341.685 478.672 340.065 478.182 337.575L467.992 285.575L467.372 282.405L462.132 255.675L461.942 254.675L450.972 198.705C450.482 196.215 452.102 193.795 454.602 193.305C454.932 193.245 455.262 193.215 455.582 193.235C457.692 193.275 459.572 194.765 459.992 196.935L471.312 254.675ZM705.592 248.274L707.592 240.154L715.522 241.234L705.592 286.174L703.652 294.954C703.532 295.494 703.872 296.034 704.412 296.154L704.632 296.174C705.072 296.174 705.482 295.864 705.592 295.424C705.595 295.421 705.597 295.418 705.599 295.414C705.602 295.408 705.602 295.401 705.602 295.394L717.942 239.544L708.072 238.204L713.662 215.534C714.452 212.324 712.492 209.084 709.282 208.294C708.002 207.974 706.722 208.094 705.592 208.564C703.882 209.254 702.512 210.734 702.032 212.674L688.642 267.014L700.272 269.874L705.592 248.274ZM716.512 281.665C714.882 281.304 713.272 282.355 712.932 283.985L705.592 319.275L692.782 380.855H692.372H651.162H647.632H641.862H641.702H641.662H634.962H626.592H626.432H619.302H619.292H615.322C612.022 380.855 609.342 383.535 609.342 386.835C609.342 387.685 609.522 388.505 609.842 389.235C610.772 391.355 612.872 392.825 615.322 392.825H626.432H661.522H677.562H690.292L689.302 397.585L689.282 397.665L683.842 423.845H651.162H641.862H594.222C592.572 423.845 591.222 425.185 591.222 426.845C591.222 428.505 592.572 429.845 594.222 429.845H641.862H651.162H682.592L673.272 474.635L665.692 511.085H627.052C625.392 511.085 624.052 512.424 624.052 514.085C624.052 514.825 624.322 515.505 624.772 516.025C625.062 516.375 625.432 516.655 625.862 516.835C626.222 516.995 626.632 517.085 627.052 517.085H670.052L670.062 517.044L670.552 517.155L670.622 516.835L670.782 516.025L671.812 511.085L679.392 474.635L705.592 348.735L718.812 285.205C719.142 283.595 718.122 282.015 716.512 281.665ZM321.602 392.836H321.102H317.302H315.432H280.952H265.782H217.612H209.162H168.122V419.636H254.122H278.062H321.102H321.602H322.102H369.512V392.836H322.102H321.602ZM250.612 255.605H197.022H195.342H142.132H92.1815H89.3516V249.275V228.805H142.132H195.922H204.182H254.252H290.742V255.605H250.612Z" fill="#BBD2FF"></path></svg>